# xmcd
#
# Track frame offsets:
#	150
#	14420
#	33472
#	53712
#	90001
#	111708
#	124826
#	144042
#	187191
#	226111
#	244533
#	291136
#
# Disc length: 4165 seconds
#
# Revision: 1
# Processed by: cddbd v1.4PL0 Copyright (c) Steve Scherf et al.
# Submitted via: audiograbber 1.81.03
#
DISCID=9b10430c
DTITLE=Colin John Band - Groove Yard Devils
DYEAR=2003
DGENRE=Blues
TTITLE0=For Your Pleasure
TTITLE1=What's Wrong
TTITLE2=It Aint Me
TTITLE3=The Red Rooster
TTITLE4=Hoodoo Voodoo
TTITLE5=That Aint The Church I Go To
TTITLE6=Here I Am
TTITLE7=Sugar Hills
TTITLE8=Undercover
TTITLE9=Funky Body
TTITLE10=Miss You
TTITLE11=Beer Drinkin Woman
EXTD=
EXTT0=
EXTT1=
EXTT2=
EXTT3=
EXTT4=
EXTT5=
EXTT6=
EXTT7=
EXTT8=
EXTT9=
EXTT10=
EXTT11=
PLAYORDER=
